<?xml version="1.0" encoding="UTF-8" standalone="no"?>
<!-- Created with Inkscape (http://www.inkscape.org/) -->

<svg
   xmlns:dc="http://purl.org/dc/elements/1.1/"
   xmlns:cc="http://creativecommons.org/ns#"
   xmlns:rdf="http://www.w3.org/1999/02/22-rdf-syntax-ns#"
   xmlns:svg="http://www.w3.org/2000/svg"
   xmlns="http://www.w3.org/2000/svg"
   xmlns:xlink="http://www.w3.org/1999/xlink"
   xmlns:sodipodi="http://sodipodi.sourceforge.net/DTD/sodipodi-0.dtd"
   xmlns:inkscape="http://www.inkscape.org/namespaces/inkscape"
   width="821.97119"
   height="1025.7051"
   id="svg2"
   sodipodi:version="0.32"
   inkscape:version="0.48.2 r9819"
   sodipodi:docname="Monaco-quartiers-2013_blank.svg"
   inkscape:output_extension="org.inkscape.output.svg.inkscape"
   version="1.1"
   style="display:inline">
  <defs
     id="defs4">
    <pattern
       inkscape:collect="always"
       xlink:href="#Polkadots-med"
       id="pattern5474"
       patternTransform="matrix(6.33245,0,0,6.4791521,46.138228,46.305319)" />
    <pattern
       inkscape:collect="always"
       xlink:href="#Polkadots-med"
       id="pattern5340"
       patternTransform="matrix(10,0,0,10,103.41641,101.09494)" />
    <pattern
       inkscape:collect="always"
       xlink:href="#Polkadots-med"
       id="pattern5337"
       patternTransform="matrix(10,0,0,10,103.6798,101.06567)" />
    <pattern
       inkscape:stockid="Polka dots, medium"
       id="Polkadots-med"
       patternTransform="translate(0,0) scale(10,10)"
       height="10"
       width="10"
       patternUnits="userSpaceOnUse"
       inkscape:collect="always">
      <circle
         id="circle4773"
         r="0.15"
         cy="0.810"
         cx="2.567"
         style="fill:black;stroke:none" />
      <circle
         id="circle4775"
         r="0.15"
         cy="2.33"
         cx="3.048"
         style="fill:black;stroke:none" />
      <circle
         id="circle4777"
         r="0.15"
         cy="2.415"
         cx="4.418"
         style="fill:black;stroke:none" />
      <circle
         id="circle4779"
         r="0.15"
         cy="3.029"
         cx="1.844"
         style="fill:black;stroke:none" />
      <circle
         id="circle4781"
         r="0.15"
         cy="1.363"
         cx="6.08"
         style="fill:black;stroke:none" />
      <circle
         id="circle4783"
         r="0.15"
         cy="4.413"
         cx="5.819"
         style="fill:black;stroke:none" />
      <circle
         id="circle4785"
         r="0.15"
         cy="4.048"
         cx="4.305"
         style="fill:black;stroke:none" />
      <circle
         id="circle4787"
         r="0.15"
         cy="3.045"
         cx="5.541"
         style="fill:black;stroke:none" />
      <circle
         id="circle4789"
         r="0.15"
         cy="5.527"
         cx="4.785"
         style="fill:black;stroke:none" />
      <circle
         id="circle4791"
         r="0.15"
         cy="5.184"
         cx="2.667"
         style="fill:black;stroke:none" />
      <circle
         id="circle4793"
         r="0.15"
         cy="1.448"
         cx="7.965"
         style="fill:black;stroke:none" />
      <circle
         id="circle4795"
         r="0.15"
         cy="5.049"
         cx="7.047"
         style="fill:black;stroke:none" />
      <circle
         id="circle4797"
         r="0.15"
         cy="0.895"
         cx="4.340"
         style="fill:black;stroke:none" />
      <circle
         id="circle4799"
         r="0.15"
         cy="0.340"
         cx="7.125"
         style="fill:black;stroke:none" />
      <circle
         id="circle4801"
         r="0.15"
         cy="1.049"
         cx="9.553"
         style="fill:black;stroke:none" />
      <circle
         id="circle4803"
         r="0.15"
         cy="2.689"
         cx="7.006"
         style="fill:black;stroke:none" />
      <circle
         id="circle4805"
         r="0.15"
         cy="2.689"
         cx="8.909"
         style="fill:black;stroke:none" />
      <circle
         id="circle4807"
         r="0.15"
         cy="4.407"
         cx="9.315"
         style="fill:black;stroke:none" />
      <circle
         id="circle4809"
         r="0.15"
         cy="3.870"
         cx="7.820"
         style="fill:black;stroke:none" />
      <circle
         id="circle4811"
         r="0.15"
         cy="5.948"
         cx="8.270"
         style="fill:black;stroke:none" />
      <circle
         id="circle4813"
         r="0.15"
         cy="7.428"
         cx="7.973"
         style="fill:black;stroke:none" />
      <circle
         id="circle4815"
         r="0.15"
         cy="8.072"
         cx="9.342"
         style="fill:black;stroke:none" />
      <circle
         id="circle4817"
         r="0.15"
         cy="9.315"
         cx="8.206"
         style="fill:black;stroke:none" />
      <circle
         id="circle4819"
         r="0.15"
         cy="9.475"
         cx="9.682"
         style="fill:black;stroke:none" />
      <circle
         id="circle4821"
         r="0.15"
         cy="6.186"
         cx="9.688"
         style="fill:black;stroke:none" />
      <circle
         id="circle4823"
         r="0.15"
         cy="6.296"
         cx="3.379"
         style="fill:black;stroke:none" />
      <circle
         id="circle4825"
         r="0.15"
         cy="8.204"
         cx="2.871"
         style="fill:black;stroke:none" />
      <circle
         id="circle4827"
         r="0.15"
         cy="8.719"
         cx="4.59"
         style="fill:black;stroke:none" />
      <circle
         id="circle4829"
         r="0.15"
         cy="9.671"
         cx="3.181"
         style="fill:black;stroke:none" />
      <circle
         id="circle4831"
         r="0.15"
         cy="7.315"
         cx="5.734"
         style="fill:black;stroke:none" />
      <circle
         id="circle4833"
         r="0.15"
         cy="6.513"
         cx="6.707"
         style="fill:black;stroke:none" />
      <circle
         id="circle4835"
         r="0.15"
         cy="9.670"
         cx="5.730"
         style="fill:black;stroke:none" />
      <circle
         id="circle4837"
         r="0.15"
         cy="8.373"
         cx="6.535"
         style="fill:black;stroke:none" />
      <circle
         id="circle4839"
         r="0.15"
         cy="7.154"
         cx="4.37"
         style="fill:black;stroke:none" />
      <circle
         id="circle4841"
         r="0.15"
         cy="7.25"
         cx="0.622"
         style="fill:black;stroke:none" />
      <circle
         id="circle4843"
         r="0.15"
         cy="5.679"
         cx="0.831"
         style="fill:black;stroke:none" />
      <circle
         id="circle4845"
         r="0.15"
         cy="8.519"
         cx="1.257"
         style="fill:black;stroke:none" />
      <circle
         id="circle4847"
         r="0.15"
         cy="6.877"
         cx="1.989"
         style="fill:black;stroke:none" />
      <circle
         id="circle4849"
         r="0.15"
         cy="3.181"
         cx="0.374"
         style="fill:black;stroke:none" />
      <circle
         id="circle4851"
         r="0.15"
         cy="1.664"
         cx="1.166"
         style="fill:black;stroke:none" />
      <circle
         id="circle4853"
         r="0.15"
         cy="0.093"
         cx="1.151"
         style="fill:black;stroke:none" />
      <circle
         id="circle4855"
         r="0.15"
         cy="10.093"
         cx="1.151"
         style="fill:black;stroke:none" />
      <circle
         id="circle4857"
         r="0.15"
         cy="4.451"
         cx="1.302"
         style="fill:black;stroke:none" />
      <circle
         id="circle4859"
         r="0.15"
         cy="3.763"
         cx="3.047"
         style="fill:black;stroke:none" />
    </pattern>
    <inkscape:perspective
       sodipodi:type="inkscape:persp3d"
       inkscape:vp_x="0 : 526.18109 : 1"
       inkscape:vp_y="0 : 1000 : 0"
       inkscape:vp_z="744.09448 : 526.18109 : 1"
       inkscape:persp3d-origin="372.04724 : 350.78739 : 1"
       id="perspective10" />
    <inkscape:perspective
       id="perspective3257"
       inkscape:persp3d-origin="372.04724 : 350.78739 : 1"
       inkscape:vp_z="744.09448 : 526.18109 : 1"
       inkscape:vp_y="0 : 1000 : 0"
       inkscape:vp_x="0 : 526.18109 : 1"
       sodipodi:type="inkscape:persp3d" />
    <inkscape:perspective
       id="perspective3328"
       inkscape:persp3d-origin="372.04724 : 350.78739 : 1"
       inkscape:vp_z="744.09448 : 526.18109 : 1"
       inkscape:vp_y="0 : 1000 : 0"
       inkscape:vp_x="0 : 526.18109 : 1"
       sodipodi:type="inkscape:persp3d" />
  </defs>
  <sodipodi:namedview
     id="base"
     pagecolor="#ffffff"
     bordercolor="#666666"
     borderopacity="1.0"
     inkscape:pageopacity="0.0"
     inkscape:pageshadow="2"
     inkscape:zoom="0.4669237"
     inkscape:cx="410.9856"
     inkscape:cy="512.77332"
     inkscape:document-units="px"
     inkscape:current-layer="layer5"
     showgrid="false"
     inkscape:window-width="1280"
     inkscape:window-height="697"
     inkscape:window-x="0"
     inkscape:window-y="0"
     inkscape:window-maximized="1"
     fit-margin-top="0"
     fit-margin-left="0"
     fit-margin-right="0"
     fit-margin-bottom="0">
    <inkscape:grid
       type="xygrid"
       id="grid6242" />
  </sodipodi:namedview>
  <metadata
     id="metadata7">
    <rdf:RDF>
      <cc:Work
         rdf:about="">
        <dc:format>image/svg+xml</dc:format>
        <dc:type
           rdf:resource="http://purl.org/dc/dcmitype/StillImage" />
        <dc:title />
      </cc:Work>
    </rdf:RDF>
  </metadata>
  <g
     inkscape:groupmode="layer"
     id="layer6"
     inkscape:label="Ausland"
     style="display:inline"
     transform="translate(-103.6798,-101.06567)" />
  <g
     inkscape:groupmode="layer"
     id="layer7"
     inkscape:label="Meer"
     style="display:inline"
     transform="translate(-103.6798,-101.06567)" />
  <g
     inkscape:groupmode="layer"
     id="layer8"
     inkscape:label="Monaco Fläche"
     style="display:inline"
     transform="translate(-103.6798,-101.06567)" />
  <g
     inkscape:groupmode="layer"
     id="layer4"
     inkscape:label="Küstenlinie"
     style="display:inline"
     transform="translate(-103.6798,-101.06567)" />
  <g
     inkscape:groupmode="layer"
     id="layer11"
     inkscape:label="Gebietsgrenzen"
     transform="translate(-103.6798,-101.06567)" />
  <g
     inkscape:groupmode="layer"
     id="layer5"
     inkscape:label="Staatsgrenze"
     style="display:inline"
     transform="translate(-103.6798,-101.06567)">
    <rect
       y="101.06567"
       x="103.6798"
       height="1025.7051"
       width="821.97119"
       id="rect3385"
       style="fill:#e3dbdb;fill-opacity:1;stroke:none;display:inline" />
    <path
       sodipodi:nodetypes="csssccssssccsssssssssssssssssssccsssssccsssssssssssssscscccccccccccccccccccccccccccccccccscssccccccccccccccccsscsscccccccccccccccccccccccscccccccccccscsssssssssssssssssscccccssccsssssssccccccccccccccccssccccccccccccccscccccssscssssccc"
       d="m 924.82405,195.20086 c 0,0 -6.16185,10.39179 -10.23695,13.38325 -2.22882,1.63611 -6.20589,1.87946 -8.66207,3.149 -3.31806,1.71499 -8.07512,6.33907 -10.94292,8.73178 -2.56493,2.1401 -6.59227,4.70075 -7.63932,7.8725 l 11.49505,72.35497 c 0.48226,3.30504 1.89582,8.01177 1.10439,11.25672 -0.48147,1.97382 -1.75684,4.1777 -3.46679,5.27553 -6.27652,4.02962 -16.95322,4.8563 -24.41134,4.7235 -3.15132,-0.0561 -7.12839,0.10931 -10.00174,-1.18567 -1.85264,-0.83496 -6.13743,-2.65052 -7.15921,-4.40668 l -21.11739,-36.29508 c -1.07559,-1.84866 -6.97474,-1.3969 -8.96942,-0.62407 -2.99607,1.1608 -6.30811,4.11149 -8.66209,6.298 -2.94723,2.73757 -8.5792,6.21318 -8.66209,10.23425 -0.0555,2.69223 3.09259,5.90216 5.51223,7.08525 1.0611,0.51881 2.84604,0.45189 3.93733,0 0.92599,-0.38346 1.36011,-2.36175 2.36239,-2.36175 1.33637,0 1.66616,1.35257 1.50288,2.67857 -0.33663,2.73361 -4.35578,3.17308 -6.22767,5.19393 -2.15349,2.32487 -2.55694,7.13544 -4.72476,9.44699 -2.24473,2.39357 -5.25932,4.107 -8.50844,4.56988 -0.96429,0.13737 -3.25624,0.92116 -3.85568,0.15362 -0.72693,-0.93076 -0.96221,-3.00547 -0.23529,-3.93623 1.19888,-1.53507 4.64257,-0.55063 6.2997,-1.57451 1.85274,-1.14474 3.96912,-3.46858 4.72478,-5.51075 0.40982,-1.10753 0.55736,-2.89511 0,-3.93625 -0.40191,-0.75078 -1.54716,-1.32773 -2.36238,-1.5745 -3.39153,-1.02661 -8.33848,-0.70126 -11.81195,0 -4.77382,0.96378 -9.17199,4.2087 -13.31482,6.76843 -5.55819,3.43422 -14.51225,8.23584 -17.24255,14.1705 -0.78971,1.71654 -1.59585,3.69034 -0.70585,5.35714 l 3.86527,7.23886 c 0.86889,1.62725 4.94152,-3.94497 6.76069,-4.25307 1.35815,-0.23001 0.7862,0.28208 0.87865,1.65611 0.19569,2.90863 -3.02424,4.14708 -5.8634,6.73923 -3.05208,2.78655 -6.08245,5.63191 -9.18001,5.15111 -0.8417,-0.13064 -0.68948,-1.0416 -0.6338,-1.89132 0.16415,-2.50521 6.76544,-3.41673 5.51223,-5.59234 l -4.26376,-7.40206 c -1.07996,-1.87483 -16.59919,3.14899 -20.53653,7.8725 -3.9373,4.7235 -10.7267,17.33863 -10.7267,20.48764 0,3.149 -2.75742,11.30595 -0.62423,13.52731 1.84797,1.92434 2.22259,1.32571 3.86528,1.02246 2.3918,-0.44155 5.14539,-2.47196 7.08716,-3.93625 1.06688,-0.80453 0.63275,-3.15666 3.85568,-1.7377 1.97344,0.86885 -1.44237,3.88589 -2.90499,5.75553 -2.16353,2.76563 -6.64516,2.76442 -9.61279,4.64192 -1.41155,0.89304 -2.85757,3.36765 -3.93731,4.64191 -1.31355,1.55019 -3.40968,2.8431 -3.93732,4.80509 -1.29391,4.81125 0.52953,12.09133 -0.30733,17.00268 -1.136,6.66697 -2.96575,15.04066 -7.5673,19.99806 -1.65443,1.78238 -5.32117,2.26426 -7.08716,3.93625 -5.61929,5.3202 -11.45948,16.67643 -16.93042,26.20744 -6.76107,11.77858 -12.71014,21.63773 -14.0159,24.24858 0,0 -9.61534,23.54414 -10.42198,27.30749 -0.80666,3.76333 -2.15109,21.23604 -2.15109,21.23604 l 3.22662,8.60193 -2.95772,4.30098 1.07553,4.56978 -3.76438,6.18264 2.41995,5.91383 -7.79761,9.13958 2.15107,5.10739 -8.06649,10.48361 4.8399,11.02124 -17.47741,21.77366 16.40188,39.51519 -7.25985,3.49453 -16.40188,-39.51518 -25.27502,6.72028 -1.88218,-5.91384 -16.93965,3.76334 -10.21758,4.30098 6.7221,44.08494 5.37765,-0.26881 -1.6133,4.30098 -6.72207,1.61285 -2.41995,-2.68809 -1.61329,-7.5267 1.61329,-0.26882 -6.16738,-37.5641 c 0.21343,-0.67038 -14.43048,1.47146 -27.13504,3.44916 l 3.18749,20.94323 -2.41995,0.53761 -3.22659,-17.20388 -10.75533,1.88167 -5.1088,-2.68811 -66.95193,8.87076 c 0,0 -6.45319,12.6341 -7.52871,17.20388 -1.07553,4.56978 -1.61331,20.96723 -1.61331,20.96723 0,0 2.41995,-0.53761 3.76437,-0.26879 1.34441,0.26879 3.49548,1.07523 4.03324,2.41929 0.53777,1.34404 5.11488,23.51178 5.11488,23.51178 l 4.90776,-0.87894 -3.15336,-16.8134 2.75918,-0.65678 3.15336,16.94476 10.90539,-2.36439 -4.07308,-17.33881 4.99281,-0.91949 9.06593,42.42759 -4.07309,1.05084 -4.0731,-18.25832 -11.29956,2.49574 3.41615,16.41934 -2.49641,0.78812 -3.81032,-16.68204 -3.67893,0.78812 c 0,0 2.10223,9.45755 2.23365,10.50839 0.13138,1.05084 -0.13142,4.59741 0.26276,7.09316 0.39417,2.49574 2.6278,13.9236 2.6278,13.9236 0,0 2.6399,5.91718 4.63914,7.79094 1.99925,1.87379 5.24799,4.74691 6.99732,5.87118 1.74933,1.12426 4.24838,2.49836 4.24838,2.49836 l 2.49905,7.99478 4.62322,-1.24918 -4.12342,-13.86595 2.99885,-1.24919 5.24798,17.11384 17.2434,-4.37216 -5.37294,-17.23873 -7.87199,-4.99674 1.12457,-1.24917 11.4956,-2.87314 1.62437,1.24919 -3.87351,7.24527 5.4979,16.98889 31.23803,-8.61936 40.10965,-10.99281 6.12264,-1.62395 -6.99732,-32.97845 -3.74857,-0.24985 0.24991,-1.99867 1.49941,-0.37477 0,-3.24787 5.74782,-0.87444 c 0,0 1.87429,3.49772 2.12418,4.87182 0.24991,1.37411 2.24913,14.11578 2.24913,14.11578 l 5.24801,-0.24983 -0.12496,-3.37281 1.87428,-0.62459 9.6213,7.74494 11.62056,-2.12361 4.12342,3.37279 68.97357,-79.94776 6.87237,5.12164 -68.59871,80.57236 3.74855,3.12297 c 0,0 -24.26101,27.59077 -25.95026,29.27956 -1.68922,1.68877 -3.20954,3.20869 -3.23805,2.97888 -0.35723,2.07076 -2.32967,7.32917 -2.32967,10.28704 0,2.95786 0,7.55898 0.98621,10.84549 0.98623,3.2865 1.97245,5.91572 0.98623,8.21629 -0.98623,2.30055 -6.24606,5.9157 -7.88976,8.21627 -1.6437,2.30055 -1.6437,4.92976 -4.27362,6.57302 -2.62993,1.64325 -5.25984,2.62921 -7.56103,5.58708 -2.30117,2.95786 -5.58857,7.23033 -5.58857,10.51684 0,3.28651 0.32874,8.54492 -0.65748,11.50279 -0.98623,2.95785 -6.5748,9.20222 -10.19095,10.84548 -3.61613,1.64325 -7.88976,1.64325 -10.19093,0.98596 -2.30119,-0.65731 -7.23228,-0.65731 -10.19094,-0.32865 -2.95867,0.32865 -5.91733,2.30056 -7.56102,4.27246 -1.6437,1.97191 -5.25983,7.88762 -7.56103,8.87358 -2.30117,0.98597 -8.21848,1.97191 -13.47832,4.60112 -5.25984,2.62922 -11.83464,6.57301 -13.80708,8.87359 -1.97245,2.30053 -9.53347,9.85951 -11.83464,10.51685 -2.30117,0.65725 -7.23228,0.98593 -9.20472,1.3146 -1.97243,0.32867 -7.56102,0.32867 -9.20472,0.32867 -1.64369,0 -7.23228,-0.32867 -7.23228,-0.32867 l -6.20398,-2.68273 -0.0728,30.67256 -4.83176,-0.0615 0.014,-30.33786 c 0,0 -1.93464,-0.56507 -3.24961,-0.40419 -1.63152,0.19953 -2.42161,1.49914 -6.03773,0.8418 -3.61614,-0.65725 -4.60236,-0.65725 -4.60236,-0.65725 l -5.53408,-12.55028 c 0,0 -0.35274,-4.2638 -2.05839,-6.50643 -1.96819,-2.58777 -3.52221,-3.47399 -5.65646,-4.63697 -1.44323,-0.78642 -4.83178,-0.95519 -6.47548,-0.62655 -1.64369,0.32866 -12.82085,9.20224 -15.12203,9.85954 -2.30117,0.65731 -2.62991,2.62921 -5.25984,0.65731 -2.62993,-1.97191 -1.31496,-2.30057 -2.62993,-4.60112 -1.31494,-2.30056 -9.53345,-16.76121 -12.49211,-19.39042 -2.95866,-2.6292 -7.88975,-5.91573 -7.88975,-5.91573 l -4.27363,5.25843 -2.62991,-2.95787 2.95867,-3.2865 -13.14961,-8.87359 -25.97046,20.70504 0.98623,8.21627 38.46257,-3.61516 0,2.6292 -17.09448,1.64326 0,34.50841 17.75195,-0.65734 0.32874,13.47469 55.22832,-2.62918 -0.32874,4.27245 -1.97244,0.32867 c 0,0 -0.98622,4.27245 -0.32873,7.23031 0.65747,2.95786 5.9173,16.43255 10.19092,22.0196 4.27363,5.58713 14.97788,9.87359 14.97788,9.87359 l 30.71699,-17.43257 -0.6575,-2.62919 2.95867,-1.31459 3.44825,5.88496 -80.04465,49.98576 -107.82671,102.21054 -35.50391,3.6151 -0.32876,-6.2444 32.87402,-2.436 41.42123,-38.974 -66.07674,-48.6404 -29.95049,20.6954 0.64781,17.4897 c 7.89477,0.6255 7.84622,2.9845 12.53821,5.5601 l 29.01574,20.0536 2.75589,-3.1993 2.52769,2.2889 -6.2153,7.7576 -17.07602,-11.9097 c 0,0 -20.87147,-14.0397 -23.50137,-15.0257 -2.62993,-0.9859 -5.06824,-0.4657 -12.30052,0.5202 -7.23227,0.986 -6.22934,3.1802 -11.21495,0.6196 -1.87233,-0.9617 -4.8933,-8.6988 -4.8933,-8.6988 0,0 -15.6424,2.6293 -21.23098,3.6152 -5.58857,0.9859 -21.36811,14.7893 -24.32675,18.0758 -2.95866,3.2866 -10.84841,22.0196 -11.83464,26.2921 -0.98623,4.2725 -0.32874,22.0197 0.32873,23.9915 0.6575,1.972 0.98623,16.7612 0.98623,16.7612 l 757.85562,0 -0.52649,-931.22832 z"
       style="fill:#b6ecff;fill-opacity:1;fill-rule:evenodd;stroke:none;stroke-width:1;marker:none;visibility:visible;display:inline;overflow:visible;enable-background:accumulate"
       id="path3390"
       inkscape:connector-curvature="0" />
    <path
       id="path3405"
       style="fill:#fefee9;fill-opacity:1;fill-rule:evenodd;stroke:none;stroke-width:1;marker:none;visibility:visible;display:inline;overflow:visible;enable-background:accumulate"
       d="m 888.48366,235.75652 -11.49901,-10.23224 c 0,0 2.86901,-14.91484 2.29521,-21.79862 -0.5738,-6.88377 -1.1476,-17.20943 -0.5738,-22.94591 0.5738,-5.73647 4.01662,-18.93037 3.44282,-22.37226 -0.57381,-3.44188 -6.88564,-12.62025 -12.04985,-14.34118 -5.16424,-1.72095 -17.78789,-10.32567 -22.37831,-13.76755 -4.59042,-3.44189 -5.16422,-4.01554 -5.16422,-4.01554 0,0 -5.16423,2.86824 -5.73803,6.88377 -0.5738,4.01554 1.72141,9.17837 5.73803,12.62025 4.01662,3.44189 6.31183,6.88377 6.31183,10.32567 0,3.44188 -1.72141,5.73647 -6.31183,10.32565 -4.59043,4.58919 -30.98534,30.97698 -30.98534,30.97698 l -24.67352,-2.29459 c 0,0 -9.75465,11.47295 -15.49266,14.91485 -5.73803,3.44186 -18.36169,5.73646 -22.37831,5.73646 -4.01662,0 -12.04986,-2.2946 -15.49266,-0.57365 -3.44282,1.72095 -18.93549,13.76756 -21.80451,14.91484 -2.86901,1.14731 -11.47605,1.72095 -14.91887,1.72095 -3.44282,0 -18.36169,-3.4419 -18.36169,-3.4419 l -5.73801,28.6824 -13.77128,0.57364 c 0,0 -12.04985,27.53511 -14.34506,32.12428 -2.29521,4.58918 -2.86901,9.17836 -2.86901,9.17836 0,0 -8.03324,5.73648 -10.32844,9.75201 -2.29521,4.01555 -3.44283,34.41886 -4.01663,40.15534 -0.57379,5.73648 -8.03323,16.06215 -9.75465,20.07768 -1.7214,4.01552 -5.73801,25.2405 -7.45942,29.82968 -1.72141,4.58917 -5.16423,10.89929 -9.75465,13.76753 -4.59042,2.86825 -16.06648,10.32566 -19.50928,13.76755 -3.44283,3.44189 -7.45945,20.65132 -9.75465,24.0932 -2.29521,3.44189 -21.80449,19.50403 -25.82111,23.51957 -4.01663,4.01553 -2.86903,5.73646 -6.31183,7.45741 -3.44282,1.72095 -5.16424,-1.72095 -6.88565,1.1473 -1.72139,2.86823 -10.32844,20.07766 -10.32844,20.07766 l -36.14956,-26.38778 -23.52591,14.34119 c 0,0 -0.5738,4.58918 -2.869,7.45741 -2.29521,2.86825 -8.03325,3.44189 -10.32845,5.73648 -2.29522,2.29459 -1.72142,4.01554 -0.57382,6.31013 1.14762,2.29458 1.72141,6.88377 -0.5738,9.17835 -2.29521,2.29459 -18.36169,18.35674 -21.80449,20.07768 -3.44282,1.72095 -13.77127,2.29459 -13.77127,2.29459 L 228.01388,701.65188 c 0,0 -1.7214,0 -3.4428,4.01552 -1.7214,4.01553 4.0166,17.78308 4.59042,21.22498 0.5738,3.44187 -6.31182,6.88377 -7.45944,9.75199 -1.1476,2.86826 -3.4428,5.16284 -2.29521,9.17838 1.14761,4.01553 10.32845,16.06212 10.90225,19.50402 0.57381,3.44189 -5.16422,9.17835 -4.59042,13.76753 0.5738,4.58919 0.5738,27.53511 0,29.82969 -0.5738,2.29459 -1.72141,5.16283 -4.59042,5.16283 -2.869,0 -8.03324,-2.86824 -13.77127,-2.2946 -5.73801,0.57365 -28.69012,8.60472 -28.69012,8.60472 0,0 -8.60705,2.86825 -13.19747,9.17837 -4.59042,6.31012 -36.72336,50.481 -36.72336,50.481 l 70.57771,47.61275 154.50487,123.55484 62.85119,-59.21296 80.04465,-49.98576 -3.44825,-5.88496 -2.95867,1.31459 0.6575,2.62919 -30.71699,17.43257 c 0,0 -10.70425,-4.28646 -14.97788,-9.87359 -4.27362,-5.58705 -9.53345,-19.06174 -10.19092,-22.0196 -0.65749,-2.95786 0.32873,-7.23031 0.32873,-7.23031 l 1.97244,-0.32867 0.32874,-4.27245 -55.22832,2.62918 -0.32874,-13.47469 -17.75195,0.65734 0,-34.50841 17.09448,-1.64326 0,-2.6292 -38.46257,3.61516 -0.98623,-8.21627 25.97046,-20.70504 13.14961,8.87359 -2.95867,3.2865 2.62991,2.95787 4.27363,-5.25843 c 0,0 4.93109,3.28653 7.88975,5.91573 2.95866,2.62921 11.17717,17.08986 12.49211,19.39042 1.31497,2.30055 0,2.62921 2.62993,4.60112 2.62993,1.9719 2.95867,0 5.25984,-0.65731 2.30118,-0.6573 13.47834,-9.53088 15.12203,-9.85954 1.6437,-0.32864 5.03225,-0.15987 6.47548,0.62655 2.13425,1.16298 3.68827,2.0492 5.65646,4.63697 1.70565,2.24263 2.05839,6.50643 2.05839,6.50643 l 5.53408,12.55028 c 0,0 0.98622,0 4.60236,0.65725 3.61612,0.65734 4.40621,-0.64227 6.03773,-0.8418 1.31497,-0.16088 3.24961,0.40419 3.24961,0.40419 l -0.014,30.33786 4.83176,0.0615 0.0728,-30.67256 6.20398,2.68273 c 0,0 5.58859,0.32867 7.23228,0.32867 1.6437,0 7.23229,0 9.20472,-0.32867 1.97244,-0.32867 6.90355,-0.65735 9.20472,-1.3146 2.30117,-0.65734 9.86219,-8.21632 11.83464,-10.51685 1.97244,-2.30058 8.54724,-6.24437 13.80708,-8.87359 5.25984,-2.62921 11.17715,-3.61515 13.47832,-4.60112 2.3012,-0.98596 5.91733,-6.90167 7.56103,-8.87358 1.64369,-1.9719 4.60235,-3.94381 7.56102,-4.27246 2.95866,-0.32866 7.88975,-0.32866 10.19094,0.32865 2.30117,0.65729 6.5748,0.65729 10.19093,-0.98596 3.61615,-1.64326 9.20472,-7.88763 10.19095,-10.84548 0.98622,-2.95787 0.65748,-8.21628 0.65748,-11.50279 0,-3.28651 3.2874,-7.55898 5.58857,-10.51684 2.30119,-2.95787 4.9311,-3.94383 7.56103,-5.58708 2.62992,-1.64326 2.62992,-4.27247 4.27362,-6.57302 1.6437,-2.30057 6.90353,-5.91572 7.88976,-8.21627 0.98622,-2.30057 0,-4.92979 -0.98623,-8.21629 -0.98621,-3.28651 -0.98621,-7.88763 -0.98621,-10.84549 0,-2.95787 1.97244,-8.21628 2.32967,-10.28704 0.0285,0.22981 1.54883,-1.29011 3.23805,-2.97888 1.68925,-1.68879 25.95026,-29.27956 25.95026,-29.27956 l -3.74855,-3.12297 68.59871,-80.57236 -6.87237,-5.12164 -68.97357,79.94776 -4.12342,-3.37279 -11.62056,2.12361 -9.6213,-7.74494 -1.87428,0.62459 0.12496,3.37281 -5.24801,0.24983 c 0,0 -1.99922,-12.74167 -2.24913,-14.11578 -0.24989,-1.3741 -2.12418,-4.87182 -2.12418,-4.87182 l -5.74782,0.87444 0,3.24787 -1.49941,0.37477 -0.24991,1.99867 3.74857,0.24985 6.99732,32.97845 -6.12264,1.62395 -40.10965,10.99281 -31.23803,8.61936 -5.4979,-16.98889 3.87351,-7.24527 -1.62437,-1.24919 -11.4956,2.87314 -1.12457,1.24917 7.87199,4.99674 5.37294,17.23873 -17.2434,4.37216 -5.24798,-17.11384 -2.99885,1.24919 4.12342,13.86595 -4.62322,1.24918 -2.49905,-7.99478 c 0,0 -2.49905,-1.3741 -4.24838,-2.49836 -1.74933,-1.12427 -4.99807,-3.99739 -6.99732,-5.87118 -1.99924,-1.87376 -4.63914,-7.79094 -4.63914,-7.79094 0,0 -2.23363,-11.42786 -2.6278,-13.9236 -0.39418,-2.49575 -0.13138,-6.04232 -0.26276,-7.09316 -0.13142,-1.05084 -2.23365,-10.50839 -2.23365,-10.50839 l 3.67893,-0.78812 3.81032,16.68204 2.49641,-0.78812 -3.41615,-16.41934 11.29956,-2.49574 4.0731,18.25832 4.07309,-1.05084 -9.06593,-42.42759 -4.99281,0.91949 4.07308,17.33881 -10.90539,2.36439 -3.15336,-16.94476 -2.75918,0.65678 3.15336,16.8134 -4.90776,0.87894 c 0,0 -4.57711,-22.16774 -5.11488,-23.51178 -0.53776,-1.34406 -2.68883,-2.1505 -4.03324,-2.41929 -1.34442,-0.26882 -3.76437,0.26879 -3.76437,0.26879 0,0 0.53778,-16.39745 1.61331,-20.96723 1.07552,-4.56978 7.52871,-17.20388 7.52871,-17.20388 l 66.95193,-8.87076 5.1088,2.68811 10.75533,-1.88167 3.22659,17.20388 2.41995,-0.53761 -3.18749,-20.94323 c 12.70456,-1.9777 27.34847,-4.11954 27.13504,-3.44916 l 6.16738,37.5641 -1.61329,0.26882 1.61329,7.5267 2.41995,2.68809 6.72207,-1.61285 1.6133,-4.30098 -5.37765,0.26881 -6.7221,-44.08494 10.21758,-4.30098 16.93965,-3.76334 1.88218,5.91384 25.27502,-6.72028 16.40188,39.51518 7.25985,-3.49453 -16.40188,-39.51519 17.47741,-21.77366 -4.8399,-11.02124 8.06649,-10.48361 -2.15107,-5.10739 7.79761,-9.13958 -2.41995,-5.91383 3.76438,-6.18264 -1.07553,-4.56978 2.95772,-4.30098 -3.22662,-8.60193 c 0,0 1.34443,-17.47271 2.15109,-21.23604 0.80664,-3.76335 10.42198,-27.30749 10.42198,-27.30749 1.30576,-2.61085 7.25483,-12.47 14.0159,-24.24858 5.47094,-9.53101 11.31113,-20.88724 16.93042,-26.20744 1.76599,-1.67199 5.43273,-2.15387 7.08716,-3.93625 4.60155,-4.9574 6.4313,-13.33109 7.5673,-19.99806 0.83686,-4.91135 -0.98658,-12.19143 0.30733,-17.00268 0.52764,-1.96199 2.62377,-3.2549 3.93732,-4.80509 1.07974,-1.27426 2.52576,-3.74887 3.93731,-4.64191 2.96763,-1.8775 7.44926,-1.87629 9.61279,-4.64192 1.46262,-1.86964 4.87843,-4.88668 2.90499,-5.75553 -3.22293,-1.41896 -2.7888,0.93317 -3.85568,1.7377 -1.94177,1.46429 -4.69536,3.4947 -7.08716,3.93625 -1.64269,0.30325 -2.01731,0.90188 -3.86528,-1.02246 -2.13319,-2.22136 0.62423,-10.37831 0.62423,-13.52731 0,-3.14901 6.7894,-15.76414 10.7267,-20.48764 3.93734,-4.72351 19.45657,-9.74733 20.53653,-7.8725 l 4.26376,7.40206 c 1.25321,2.17561 -5.34808,3.08713 -5.51223,5.59234 -0.0557,0.84972 -0.2079,1.76068 0.6338,1.89132 3.09756,0.4808 6.12793,-2.36456 9.18001,-5.15111 2.83916,-2.59215 6.05909,-3.8306 5.8634,-6.73923 -0.0924,-1.37403 0.4795,-1.88612 -0.87865,-1.65611 -1.81917,0.3081 -5.8918,5.88032 -6.76069,4.25307 l -3.86527,-7.23886 c -0.89,-1.6668 -0.0839,-3.6406 0.70585,-5.35714 2.7303,-5.93466 11.68436,-10.73628 17.24255,-14.1705 4.14283,-2.55973 8.541,-5.80465 13.31482,-6.76843 3.47347,-0.70126 8.42042,-1.02661 11.81195,0 0.81522,0.24677 1.96047,0.82372 2.36238,1.5745 0.55736,1.04114 0.40982,2.82872 0,3.93625 -0.75566,2.04217 -2.87204,4.36601 -4.72478,5.51075 -1.65713,1.02388 -5.10082,0.0394 -6.2997,1.57451 -0.72692,0.93076 -0.49164,3.00547 0.23529,3.93623 0.59944,0.76754 2.89139,-0.0162 3.85568,-0.15362 3.24912,-0.46288 6.26371,-2.17631 8.50844,-4.56988 2.16782,-2.31155 2.57127,-7.12212 4.72476,-9.44699 1.87189,-2.02085 5.89104,-2.46032 6.22767,-5.19393 0.16328,-1.326 -0.16651,-2.67857 -1.50288,-2.67857 -1.00228,0 -1.4364,1.97829 -2.36239,2.36175 -1.09129,0.45189 -2.87623,0.51881 -3.93733,0 -2.41964,-1.18309 -5.56773,-4.39302 -5.51223,-7.08525 0.0829,-4.02107 5.71486,-7.49668 8.66209,-10.23425 2.35398,-2.18651 5.66602,-5.1372 8.66209,-6.298 1.99468,-0.77283 7.89383,-1.22459 8.96942,0.62407 l 21.11739,36.29508 c 1.02178,1.75616 5.30657,3.57172 7.15921,4.40668 2.87335,1.29498 6.85042,1.12957 10.00174,1.18567 7.45812,0.1328 18.13482,-0.69388 24.41134,-4.7235 1.70995,-1.09783 2.98532,-3.30171 3.46679,-5.27553 0.79143,-3.24495 -0.62213,-7.95168 -1.10439,-11.25672 L 888.48367,235.7565 z"
       sodipodi:nodetypes="ccssssscssssccssssscccscsssssssssscccsssssccssssssssscscccccccccssccccccccccccccccsssssssccsscccccsssssssssssssssssscscccccccccccscccccccccccccccccccccccsscssccccccccccccccccsscscccccccccccccccccccccccccccccccccscssssssssssssssccsssssccsssssssssssssssssssccsssscc"
       inkscape:connector-curvature="0" />
    <path
       style="fill:none;stroke:#000000;stroke-width:1px;stroke-linecap:butt;stroke-linejoin:miter;stroke-opacity:1;display:inline"
       d="m 298.65685,814.62976 -14.38542,17.35934 -16.20302,-0.81663 -0.75344,14.02708 -13.47662,9.18016 -31.95552,10.08895 4.39642,7.05963 -8.6297,13.11828 8.94041,4.63616 -23.24762,40.52981 151.24168,121.10996 63.99703,-60.64977 81.56713,-50.35003 -35.08224,-17.11235 0,-28.71287 -15.84159,-0.9901 -5.94059,-10.89109 0,-5.94059 -10.89109,-9.90099 -19.80198,13.86138 -4.95049,-1.98019 -14.85149,-23.76238 -5.94059,-4.95049 -5.9406,4.95049 -3.96039,-3.9604 2.97029,-4.95049 -11.88118,-5.94059 -4.9505,-9.90099 -6.93069,4.95049 -17.82178,-16.83168 -5.9406,-0.9901 -17.82178,8.91089 -15.84159,-11.88119"
       id="path3010"
       inkscape:connector-curvature="0"
       sodipodi:nodetypes="ccccccccccccccccccccccccccccccccc" />
    <path
       style="fill:url(#pattern5340);fill-opacity:1;stroke:#000000;stroke-width:1px;stroke-linecap:butt;stroke-linejoin:miter;stroke-opacity:1;display:inline"
       d="m 368.17226,840.44775 c 0,0 4.49911,2.26435 9.85525,5.41875 5.35615,3.1544 -4.18316,4.16951 -0.75498,7.72967 2.94481,3.05817 1.20954,-2.92571 3.05839,1.50284 1.84885,4.42854 3.04075,-6.17684 5.78124,-5.09126 3.21889,1.27509 7.5524,5.78562 8.65772,5.73632 1.10532,-0.0493 12.3115,21.99965 12.3115,21.99965 l 8.06115,0.84193 20.78432,-13.09299 3.51715,5.99173 3.51716,5.99173 7.0343,16.83039 13.69883,-0.73962 10.66951,1.68375 18.54575,0.47212 10.50686,-3.57621 12.87129,-13.8614 7.92079,-3.9604 13.86139,-3.9604 7.92079,-9.901 7.92079,-4.9505 14.85148,1.9802 9.90099,-3.9604 5.9406,-7.9208 1.9802,-4.9505 -3.9604,-8.9108 6.93069,-8.91093 7.9208,-5.94059 2.97029,-6.9307 7.9208,-6.93069 -1.9802,-27.72277 9.90099,-9.90099 -15.84159,-11.88119 -7.92079,9.90099 -81.18812,18.81188 -28.71287,0.9901 -10.89109,0 -16.83168,2.9703 -6.93069,1.9802 -57.42575,-12.87129 -0.9901,4.95049 -14.85148,-3.96039 -6.93069,2.9703 -7.9208,11.88118 -19.80198,13.86139 -0.9901,11.88119"
       id="path3012"
       inkscape:connector-curvature="0"
       sodipodi:nodetypes="cssssscccccccccccccccccccccccccccccccccccccccc" />
    <path
       style="fill:url(#pattern5337);fill-opacity:1;stroke:#000000;stroke-width:1px;stroke-linecap:butt;stroke-linejoin:miter;stroke-opacity:1;display:inline"
       d="m 384.86792,563.40441 15.84158,17.82179 8.91089,10.89109 6.93069,6.93069 9.90099,5.94059 11.88119,2.9703 -1.98019,11.88118 10.89109,4.9505 27.72277,-4.95049 3.9604,20.79207 -31.68317,5.94059 -13.86139,-9.90098 -10.89109,6.93069 -4.95049,-10.89109 -0.9901,-9.90099 -12.87129,1.9802 0,-5.94059 -24.75248,-17.82179 0.9901,-15.84158 -8.91089,-7.92079"
       id="path5506"
       inkscape:connector-curvature="0"
       sodipodi:nodetypes="cccccccccccccccccccc" />
    <path
       style="fill:none;stroke:#000000;stroke-width:1px;stroke-linecap:butt;stroke-linejoin:miter;stroke-opacity:1;display:inline"
       d="m 344.27386,735.68164 22.77228,-5.94059 1.98019,-18.81189 54.24724,-68.06409 -4.89579,-11.02112 -1.2606,-7.38593 -13.37791,0.49032 -0.0489,-5.56834 -24.88936,-17.68564 0.557,-16.47392 -6.71339,-8.59766 -95.16976,82.28218 12.67431,4.73138 7.22152,8.36657 12.6743,4.12551 -7.31925,12.00177 12.06844,8.36658 12.06845,-7.9918 12.6743,16.24282 -12.74761,16.90647 16.9398,13.87713"
       id="path3046"
       inkscape:connector-curvature="0"
       sodipodi:nodetypes="ccccccccccccccccccccc" />
    <path
       style="fill:none;stroke:#000000;stroke-width:1px;stroke-linecap:butt;stroke-linejoin:miter;stroke-opacity:1;display:inline"
       d="m 477.93723,639.64204 44.55445,-10.89109 0.9901,3.96039 19.80198,-5.9406 0,4.9505 25.74257,-3.9604 39.60397,-12.87128 18.81188,-12.87129 0.9901,6.9307 9.90099,-10e-6 1.9802,9.901 66.2741,36.38353 -70.20975,81.78739 5.41453,6.36171 -24.05917,22.15119 -17.74337,-14.69092 -5.11179,11.62487 -83.00653,20.04592 -45.11179,0.0459 -16.69074,6.36172 -57.74338,-13.63829 -0.90126,6.36171 -15.63811,-6.26987 -9.32232,4.25645 -7.21706,12.6775 -17.74337,9.51961 -1.9539,18.99329 -8.26969,-3.11197 -14.58548,10.57224 -16.52553,-14.00209 39.26394,-54.00208 5.57973,-24.5284 22.26355,-4.89578 0.15828,-20.68526 55.94776,-66.47472 9.63197,-7.52736 14.36881,10.89369 31.21092,-7.00104"
       id="path3048"
       inkscape:connector-curvature="0"
       sodipodi:nodetypes="cccccccccccccccccccccccccccccccccccccc" />
    <path
       style="fill:none;stroke:#000000;stroke-width:1px;stroke-linecap:butt;stroke-linejoin:miter;stroke-opacity:1;display:inline"
       d="m 639.32336,611.91926 14.85149,-12.87128 -4.9505,-13.86139 7.9208,-10.89109 -2.9703,-5.94059 8.91089,-7.9208 0,-8.91089 2.9703,-3.96039 -3.9604,-6.9307 5.9406,-0.99009 -3.9604,-11.88119 0.9901,-15.84159 5.94059,-11.88119 3.9604,-15.84158 3.96039,-5.94059 -8.91089,0 1.9802,-12.87129 c -2.53947,-7.58486 -5.13653,-4.72189 -10.89109,-9.90099 l -6.93069,5.94059 -9.90099,-10.89109 -2.9703,-15.84158 1.9802,-14.85148 4.9505,-16.83169 9.90099,-11.88119 11.88118,-13.86138 4.9505,-13.86139 2.9703,-12.87129 -23.76238,-20.79207 -6.93069,3.96039 -17.82439,-8.65685 -2.03491,25.02736 -10.45597,18.71156 -6.24544,29.23789 -6.24544,14.50104 -23.08755,12.39578 -8.3507,25.02736 -29.40334,23.97473 -3.08754,8.18525 -7.29808,-2.34106 -11.50859,22.92209 -35.71913,-25.49896 -24.14018,12.39578 -2.03491,13.44841 -14.66649,0.81683 5.66668,14.31264 -23.80699,22.73368 -14.33331,0.62842 -24.85963,20.62842 29.87721,39.57579 20.40353,6.94421 -2.75436,14.31263 13.38048,1.48664 27.0647,-4.82914 2.85417,19.38138 44.95943,-10.09231 2.85416,3.59191 15.48575,-5.88177 0.74891,6.7498 23.9068,-6.93441 40.7489,-11.14493 20.74891,-12.19757 0.7489,5.69717 12.32785,3.59191"
       id="path3047"
       inkscape:connector-curvature="0"
       sodipodi:nodetypes="ccccccccccccccccccccccccccccccccccccccccccccccccccccccccccccccc" />
    <path
       style="fill:none;stroke:#000000;stroke-width:1px;stroke-linecap:butt;stroke-linejoin:miter;stroke-opacity:1;display:inline"
       d="m 678.0914,351.36792 -24.07684,-21.30625 -7.32807,2.83167 -17.18029,-7.51315 1.53892,-16.87276 10.89853,-10.46882 17.30247,-40.02547 13.85419,-1.10921 5.97242,-28.20281 18.28769,4.3095 15.33202,-3.57226 21.73597,-15.39493 15.82464,2.33906 11.88375,-2.58704 10.89852,-4.55749 13.78532,-13.80652 25.11536,1.95703 36.44541,-38.43706 -1.48563,-10.35824 -7.39695,-6.41735 -3.94868,-10.85085 7.38137,-5.43213 17.7262,13.77969 13.78531,7.37574 7.87398,9.3462 -3.94868,23.6319 -0.008,9.3462 1.96265,17.22796 -3.94868,19.69102 -17.24917,0.4792 -7.92079,4.95049 -5.94059,5.9406 -2.9703,-3.9604 -6.93069,4.9505 -2.9703,2.97029 -6.93069,-2.97029 -61.38614,35.64356 -33.66337,24.75248 -31.68317,28.71287 -19.80198,22.77227"
       id="path3049"
       inkscape:connector-curvature="0"
       sodipodi:nodetypes="cccccccccccccccccccccccccccccccccccccccc" />
    <path
       style="fill:none;stroke:#000000;stroke-width:1px;stroke-linecap:butt;stroke-linejoin:miter;stroke-opacity:1;display:inline"
       d="m 885.42403,234.90975 -8.36518,-9.66193 -20.99678,4.02228 -11.5231,9.28543 -1.31945,-0.71593 -10.14778,3.49733 -6.25993,-3.87246 -28.3652,15.07491 -35.56605,24.51016 -29.25026,20.29964 -35.56605,29.77332 -19.77658,23.45753 -7.145,25.56279 -23.9871,25.56279 -7.145,30.82595 4.43395,18.19437 9.69711,9.77332 6.53921,-3.91089 11.80237,5.5628 -1.88184,15.03647 8.64448,2.4049 22.32869,-44.96352 9.03595,-2.90777 6.9307,-7.92079 3.96039,-9.90099 0.9901,-15.84158 0,-8.91089 9.90099,-6.9307 15.84159,-10.89109 60.39604,-50.49505 5.94059,-11.88118 7.92079,-4.9505 19.80198,-9.90099 11.88119,21.78218 10.89109,4.95049 13.86138,0 11.88119,-1.98019 7.92079,-3.9604 1.9802,-4.9505 -13.86138,-74.25742"
       id="path3051"
       inkscape:connector-curvature="0"
       sodipodi:nodetypes="cccccccccccccccccccccccccccccccccccccccc" />
    <path
       id="path3374"
       style="fill:none;stroke:#007dca;stroke-width:0.99999988;stroke-linecap:butt;stroke-linejoin:round;stroke-miterlimit:3.8636899;stroke-opacity:1;stroke-dasharray:none;stroke-dashoffset:0;marker:none;visibility:visible;display:inline;overflow:visible;enable-background:accumulate"
       d="m 924.82401,195.20085 c 0,0 -6.16184,10.39179 -10.23694,13.38326 -2.22883,1.6361 -6.2059,1.87946 -8.66207,3.149 -3.31807,1.71498 -8.07513,6.33906 -10.94293,8.73177 -2.56493,2.14011 -6.59226,4.70075 -7.63931,7.8725 l 11.49504,72.35497 c 0.48226,3.30503 1.89582,8.01177 1.1044,11.25672 -0.48147,1.97383 -1.75685,4.17769 -3.4668,5.27553 -6.27652,4.02961 -16.95323,4.8563 -24.41134,4.72351 -3.15132,-0.0561 -7.12839,0.1093 -10.00174,-1.18568 -1.85263,-0.83496 -6.13743,-2.65052 -7.15921,-4.40668 l -21.11739,-36.29509 c -1.07559,-1.84865 -6.97473,-1.39689 -8.96941,-0.62406 -2.99607,1.1608 -6.30811,4.11149 -8.6621,6.29801 -2.94722,2.73756 -8.57919,6.21317 -8.66208,10.23423 -0.0555,2.69225 3.09259,5.90217 5.51223,7.08525 1.0611,0.51882 2.84604,0.4519 3.93733,0 0.92599,-0.38345 1.3601,-2.36174 2.36238,-2.36174 1.33637,0 1.66617,1.35257 1.50288,2.67857 -0.33662,2.73361 -4.35577,3.17308 -6.22766,5.19392 -2.1535,2.32488 -2.55695,7.13545 -4.72476,9.447 -2.24474,2.39357 -5.25933,4.10699 -8.50844,4.56988 -0.96429,0.13736 -3.25625,0.92115 -3.85569,0.15363 -0.72692,-0.93077 -0.9622,-3.00549 -0.23528,-3.93625 1.19887,-1.53506 4.64257,-0.55062 6.29969,-1.5745 1.85275,-1.14473 3.96913,-3.46858 4.72479,-5.51075 0.40981,-1.10754 0.55736,-2.89511 0,-3.93625 -0.40191,-0.75077 -1.54717,-1.32773 -2.36238,-1.5745 -3.39153,-1.02661 -8.33848,-0.70125 -11.81195,0 -4.77382,0.96377 -9.17199,4.2087 -13.31482,6.76843 -5.55819,3.43421 -14.51225,8.23584 -17.24255,14.1705 -0.78971,1.71654 -1.59585,3.69033 -0.70585,5.35714 l 3.86527,7.23886 c 0.86889,1.62724 4.94152,-3.94498 6.76069,-4.25307 1.35815,-0.23002 0.7862,0.28208 0.87865,1.6561 0.19569,2.90863 -3.02424,4.14709 -5.8634,6.73924 -3.05208,2.78655 -6.08245,5.63192 -9.18002,5.15111 -0.84169,-0.13065 -0.68947,-1.0416 -0.63379,-1.89132 0.16415,-2.50521 6.76544,-3.41673 5.51223,-5.59234 l -4.26376,-7.40206 c -1.07996,-1.87483 -16.59919,3.14898 -20.53653,7.8725 -3.9373,4.7235 -10.72671,17.33863 -10.72671,20.48764 0,3.149 -2.75741,11.30595 -0.62422,13.5273 1.84797,1.92435 2.22259,1.32571 3.86527,1.02246 2.3918,-0.44155 5.1454,-2.47196 7.08717,-3.93625 1.06688,-0.80453 0.63275,-3.15665 3.85568,-1.73769 1.97344,0.86885 -1.44238,3.88588 -2.90499,5.75553 -2.16353,2.76563 -6.64516,2.76443 -9.61279,4.64192 -1.41155,0.89304 -2.85757,3.36765 -3.93731,4.6419 -1.31355,1.5502 -3.40967,2.84311 -3.93732,4.8051 -1.29391,4.81125 0.52953,12.09132 -0.30733,17.00268 -1.136,6.66697 -2.96575,15.04065 -7.56729,19.99806 -1.65444,1.78237 -5.32118,2.26426 -7.08717,3.93624 -5.61928,5.32021 -11.45948,16.67644 -16.93042,26.20745 -6.76108,11.77857 -12.71013,21.63773 -14.0159,24.24858 0,0 -9.61534,23.54412 -10.42198,27.30748 -0.80666,3.76333 -2.15108,21.23605 -2.15108,21.23605 l 3.22661,8.60192 -2.95772,4.30099 1.07553,4.56978 -3.76437,6.18263 2.41995,5.91383 -7.79761,9.13957 2.15106,5.1074 -8.06649,10.48361 4.8399,11.02124 -17.47741,21.77366 16.40188,39.51518 -7.25986,3.49454 -16.40187,-39.51518 -25.27501,6.72028 -1.88218,-5.91384 -16.93965,3.76334 -10.21758,4.30098 6.72209,44.08494 5.37766,-0.26882 -1.61331,4.30099 -6.72207,1.61285 -2.41996,-2.6881 -1.61328,-7.5267 1.61328,-0.26882 -6.16736,-37.56409 c 0.21342,-0.67038 -14.43048,1.47145 -27.13504,3.44916 l 3.18749,20.94323 -2.41995,0.53761 -3.2266,-17.20388 -10.75532,1.88167 -5.1088,-2.68811 -66.95193,8.87076 c 0,0 -6.45318,12.63409 -7.52871,17.20387 -1.07554,4.56978 -1.61331,20.96724 -1.61331,20.96724 0,0 2.41995,-0.53761 3.76436,-0.2688 1.34443,0.2688 3.49549,1.07524 4.03324,2.41929 0.53778,1.34404 5.11489,23.51179 5.11489,23.51179 l 4.90776,-0.87894 -3.15336,-16.81341 2.75918,-0.65677 3.15336,16.94476 10.90538,-2.36439 -4.07307,-17.33881 4.99282,-0.91949 9.06592,42.42759 -4.07309,1.05083 -4.0731,-18.25831 -11.29956,2.49574 3.41615,16.41935 -2.49641,0.78811 -3.81031,-16.68204 -3.67894,0.78812 c 0,0 2.10224,9.45755 2.23365,10.50839 0.13138,1.05083 -0.13141,4.59742 0.26277,7.09316 0.39417,2.49574 2.62779,13.92359 2.62779,13.92359 0,0 2.6399,5.91719 4.63915,7.79095 1.99924,1.87378 5.24798,4.7469 6.99731,5.87118 1.74933,1.12427 4.24838,2.49835 4.24838,2.49835 l 2.49904,7.99478 4.62323,-1.24918 -4.12343,-13.86595 2.99886,-1.24918 5.24798,17.11383 17.2434,-4.37214 -5.37294,-17.23875 -7.87199,-4.99674 1.12456,-1.24916 11.49561,-2.87315 1.62437,1.24919 -3.87351,7.24527 5.4979,16.98889 31.23803,-8.61936 40.10963,-10.9928 6.12265,-1.62395 -6.99732,-32.97846 -3.74857,-0.24984 0.24991,-1.99868 1.49942,-0.37477 0,-3.24786 5.74781,-0.87445 c 0,0 1.87429,3.49772 2.12418,4.87183 0.24991,1.3741 2.24913,14.11577 2.24913,14.11577 l 5.24801,-0.24983 -0.12495,-3.37281 1.87428,-0.62459 9.6213,7.74495 11.62056,-2.12361 4.12341,3.37279 68.97358,-79.94776 6.87236,5.12164 -68.59871,80.57236 3.74855,3.12296 c 0,0 -24.26101,27.59077 -25.95026,29.27956 -1.68922,1.68877 -3.20954,3.20869 -3.23804,2.97888 -0.35724,2.07077 -2.32968,7.32918 -2.32968,10.28704 0,2.95787 0,7.55898 0.98621,10.84549 0.98623,3.28651 1.97246,5.91573 0.98623,8.21629 -0.98623,2.30055 -6.24606,5.9157 -7.88975,8.21627 -1.6437,2.30056 -1.6437,4.92977 -4.27363,6.57303 -2.62993,1.64324 -5.25983,2.62921 -7.56102,5.58707 -2.30117,2.95786 -5.58857,7.23033 -5.58857,10.51684 0,3.28651 0.32874,8.54492 -0.65749,11.50278 -0.98623,2.95786 -6.57479,9.20224 -10.19095,10.84549 -3.61613,1.64325 -7.88975,1.64325 -10.19092,0.98596 -2.30119,-0.65731 -7.23228,-0.65731 -10.19094,-0.32865 -2.95867,0.32865 -5.91733,2.30055 -7.56103,4.27245 -1.64369,1.97193 -5.25982,7.88763 -7.56102,8.8736 -2.30117,0.98595 -8.21848,1.97189 -13.47832,4.60111 -5.25985,2.62921 -11.83464,6.57302 -13.80708,8.87358 -1.97245,2.30053 -9.53347,9.85951 -11.83464,10.51685 -2.30117,0.65725 -7.23228,0.98592 -9.20472,1.31459 -1.97243,0.32867 -7.56102,0.32867 -9.20472,0.32867 -1.64369,0 -7.23229,-0.32867 -7.23229,-0.32867 l -6.20397,-2.68272 -0.0728,30.67255 -4.83176,-0.0615 0.014,-30.33786 c 0,0 -1.93464,-0.56498 -3.24961,-0.40419 -1.63152,0.19953 -2.4216,1.49914 -6.03773,0.8418 -3.61614,-0.65725 -4.60237,-0.65725 -4.60237,-0.65725 l -5.53407,-12.55028 c 0,0 -0.35274,-4.2638 -2.05839,-6.50642 -1.96818,-2.58777 -3.52221,-3.47399 -5.65646,-4.63697 -1.44323,-0.78643 -4.83177,-0.95519 -6.47547,-0.62654 -1.6437,0.32864 -12.82085,9.20223 -15.12204,9.85952 -2.30118,0.65732 -2.62991,2.62922 -5.25984,0.65732 -2.62992,-1.9719 -1.31496,-2.30057 -2.62992,-4.60112 -1.31495,-2.30057 -9.53346,-16.76121 -12.49211,-19.39043 -2.95867,-2.62919 -7.88976,-5.91572 -7.88976,-5.91572 l -4.27362,5.25843 -2.62991,-2.95786 2.95866,-3.28651 -13.14961,-8.87358 -25.97045,20.70503 0.98622,8.21627 38.46257,-3.61516 0,2.6292 -17.09447,1.64325 0,34.5084 17.75194,-0.65734 0.32874,13.4747 55.22831,-2.62919 -0.32873,4.27245 -1.97244,0.32867 c 0,0 -0.98622,4.27246 -0.32873,7.23031 0.65747,2.95786 5.9173,16.43256 10.19092,22.0196 4.27363,5.58714 14.97788,9.87368 14.97788,9.87368 l 30.71699,-17.43266 -0.6575,-2.62918 2.95867,-1.3146 3.44825,5.88496 -80.04465,49.98576 -107.8267,102.2105 -35.50391,3.6151 -0.32876,-6.2443 4.87688,-0.1897 27.99713,-2.6021 41.42123,-38.6183 -66.07673,-48.6404 -29.95049,20.6955 0.64781,17.4896 c 7.89477,0.6255 7.84622,2.9846 12.53821,5.5601 l 29.01574,20.0536 2.75589,-3.1993 2.52769,2.2889 -6.2153,7.7576 -17.07602,-11.9097 c 0,0 -20.87147,-14.0396 -23.50138,-15.0257 -2.62992,-0.9859 -5.06823,-0.4657 -12.30051,0.5203 -7.23227,0.986 -6.22934,3.1802 -11.21495,0.6195 -1.87234,-0.9617 -4.8933,-8.6987 -4.8933,-8.6987 0,0 -15.6424,2.6292 -21.23098,3.6152 -5.58857,0.9859 -21.3681,14.7892 -24.32674,18.0758 -2.95866,3.2865 -10.84843,22.0196 -11.83464,26.292 -0.98623,4.2726 -0.32874,22.0197 0.32873,23.9917 0.65748,1.9718 0.98622,16.7611 0.98622,16.7611"
       sodipodi:nodetypes="csssccssssccsssssssssssssssssssccsssssccsssssssssssssscscccccccccccccccccccccccccccccccccscssccccccccccccccccsscsscccccccccccccccccccccccscccccccccccscsssssssssssssssssscccccssccsssssssccccccccccccccccsscccccccccccccccscccccssscssssc"
       inkscape:connector-curvature="0" />
    <path
       style="fill:none;stroke:#000000;stroke-width:1px;stroke-linecap:butt;stroke-linejoin:miter;stroke-opacity:1;display:inline"
       d="m 277.36206,659.75162 -49.96289,42.77031 -3.31123,5.8125 5.49482,19.50127 -7.22834,7.38395 -3.59315,8.59568 12.15935,20.10714 -4.80488,11.01914 0.042,35.25377 -2.98728,4.35462 -15.71046,-2.91577 -32.67471,10.41328 -7.83421,5.56637 -37.52162,52.82386 73.35178,51.00628 23.6708,-42.29703 -8.91089,-4.9505 7.92079,-12.87129 -3.9604,-5.94059 30.69307,-10.89109 13.86139,-8.91089 1.98019,-12.87129 15.84158,-0.9901 16.83169,-17.82178 8.91089,-15.84159 29.70297,-37.62376 6.93069,-23.76237 -20.79207,-13.86139 13.86138,-18.81187 -12.87128,-15.84159 -11.88119,8.91089 -12.87129,-7.92079 8.9109,-13.86139 -10.8911,-0.9901 -10.89108,-10.89109 -11.88119,-3.96039"
       id="path3004"
       inkscape:connector-curvature="0"
       sodipodi:nodetypes="cccccccccccccccccccccccccccccccccccc" />
    <path
       style="fill:none;stroke:#000000;stroke-width:2;stroke-linecap:butt;stroke-linejoin:round;stroke-miterlimit:3.8636899;stroke-opacity:1;stroke-dasharray:none;stroke-dashoffset:0;marker:none;visibility:visible;display:inline;overflow:visible;enable-background:accumulate"
       d="m 888.46068,235.84993 -11.47607,-10.32567 c 0,0 2.86902,-14.91483 2.29522,-21.7986 -0.5738,-6.88378 -1.1476,-17.20944 -0.5738,-22.94591 0.5738,-5.73648 4.01662,-18.93038 3.44282,-22.37226 -0.57382,-3.44189 -6.88564,-12.62025 -12.04986,-14.34119 -5.16423,-1.72095 -17.78789,-10.32567 -22.3783,-13.76755 -4.59042,-3.44188 -5.16422,-4.01553 -5.16422,-4.01553 0,0 -5.16424,2.86823 -5.73803,6.88377 -0.5738,4.01553 1.72141,9.17836 5.73803,12.62025 4.01662,3.44188 6.31182,6.88377 6.31182,10.32566 0,3.44189 -1.7214,5.73647 -6.31182,10.32565 -4.59044,4.58919 -30.98534,30.97698 -30.98534,30.97698 l -24.67352,-2.29459 c 0,0 -9.75465,11.47295 -15.49266,14.91485 -5.73803,3.44187 -18.36169,5.73646 -22.37832,5.73646 -4.01661,0 -12.04985,-2.29459 -15.49265,-0.57364 -3.44282,1.72095 -18.93549,13.76755 -21.80451,14.91484 -2.86901,1.1473 -11.47605,1.72094 -14.91887,1.72094 -3.44282,0 -18.36169,-3.44189 -18.36169,-3.44189 l -5.73801,28.68239 -13.77127,0.57364 c 0,0 -12.04986,27.5351 -14.34507,32.12429 -2.2952,4.58917 -2.869,9.17835 -2.869,9.17835 0,0 -8.03324,5.73648 -10.32845,9.75202 -2.29521,4.01553 -3.44282,34.41885 -4.01662,40.15533 -0.5738,5.73648 -8.03324,16.06214 -9.75465,20.07768 -1.72141,4.01551 -5.73801,25.2405 -7.45942,29.82967 -1.72142,4.58918 -5.16424,10.8993 -9.75466,13.76753 -4.59041,2.86825 -16.06647,10.32566 -19.50927,13.76756 -3.44283,3.44189 -7.45945,20.65132 -9.75465,24.09319 -2.29522,3.4419 -21.80449,19.50403 -25.82112,23.51957 -4.01662,4.01554 -2.86902,5.73646 -6.31182,7.45741 -3.44283,1.72094 -5.16424,-1.72095 -6.88565,1.1473 -1.72139,2.86824 -10.32845,20.07766 -10.32845,20.07766 l -36.14956,-26.38778 -23.5259,14.34119 c 0,0 -0.5738,4.58918 -2.86901,7.45741 -2.2952,2.86825 -8.03324,3.44189 -10.32844,5.73648 -2.29521,2.2946 -1.72141,4.01554 -0.57382,6.31013 1.14761,2.29459 1.72141,6.88376 -0.5738,9.17836 -2.29521,2.29458 -18.36168,18.35673 -21.80449,20.07767 -3.44282,1.72094 -13.77127,2.29459 -13.77127,2.29459 L 228.01388,701.65186 c 0,0 -1.72141,0 -3.44281,4.01551 -1.7214,4.01554 4.0166,17.78309 4.59042,21.22498 0.5738,3.44188 -6.31182,6.88377 -7.45944,9.752 -1.1476,2.86825 -3.4428,5.16284 -2.29521,9.17837 1.14761,4.01553 10.32845,16.06213 10.90225,19.50402 0.57382,3.4419 -5.16422,9.17836 -4.59042,13.76753 0.5738,4.5892 0.5738,27.53511 0,29.82969 -0.5738,2.29459 -1.72141,5.16283 -4.59042,5.16283 -2.869,0 -8.03323,-2.86824 -13.77127,-2.29459 -5.73801,0.57364 -28.69012,8.60471 -28.69012,8.60471 0,0 -8.60705,2.86825 -13.19747,9.17837 -4.59042,6.31013 -36.72336,50.481 -36.72336,50.481 l 70.57772,47.61274 154.3529,123.33428"
       id="path3382"
       inkscape:connector-curvature="0" />
    <flowRoot
       xml:space="preserve"
       id="flowRoot6284"
       style="fill:black;stroke:none;stroke-opacity:1;stroke-width:1px;stroke-linejoin:miter;stroke-linecap:butt;fill-opacity:1;font-family:Sans;font-style:normal;font-weight:normal;font-size:20px;line-height:125%;letter-spacing:0px;word-spacing:0px"><flowRegion
         id="flowRegion6286" /><flowPara
         id="flowPara6290" /></flowRoot>  </g>
</svg>
