<svg xmlns="http://www.w3.org/2000/svg" viewBox="35.1350 -295.4785 836.2781 1018.9746" fill="#1e293b">
  <path d="M 149.70882,345.29108 C 148.36926,339.85138 147.14391,332.33568 146.37763,325.14551 L 152.05978,321.39735 L 151.62999,306.35783 L 145.73057,306.245 C 144.23891,302.37614 142.55773,299.39392 139.32989,294.35652 C 139.32989,294.35652 142.55773,299.39392 139.46298,294.55621 L 140.02585,282.7243 L 131.54557,277.85151 C 130.54419,273.95554 130.89636,270.94757 130.89636,267.93963 C 130.89636,262.2293 113.76212,250.80867 111.22371,248.27076 C 108.6853,245.73283 85.205041,232.40875 80.762829,225.42947 C 76.320618,218.45019 76.320618,205.12612 76.320618,198.14684 C 76.320618,191.16756 78.224422,174.03661 78.224422,168.32629 C 78.224422,162.61596 73.147608,137.87126 73.147608,132.16093 C 73.147608,131.34407 73.086477,129.5674 73.224793,127.63595 L 78.137093,120.2975 L 78.137093,109.98469 L 84.57044,103.60934 L 115.03132,113.12655 L 125.18495,121.37478 L 134.06937,118.20239 L 140.41539,119.47134 L 141.04999,113.76102 L 160.08803,113.76102 L 189.91432,73.154305 L 203.24096,72.519836 L 212.12539,79.499117 L 299.06581,82.037028 L 306.68104,67.443997 L 315.56545,66.175042 L 365.699,-1.7143061 L 384.73704,-4.8867033 L 407.58271,-31.534853 L 457.71624,-70.23814 L 509.11898,-106.40348 L 531.96464,-120.36204 L 548.46428,-122.26548 L 559.25251,-131.78268 L 568.77153,-138.76196 L 576.38676,-137.493 L 582.73278,-142.56884 L 592.25179,-145.10675 L 600.50162,-151.45155 L 611.92446,-151.45155 L 627.1549,-151.45155 L 632.23171,-150.81708 L 638.57773,-150.81708 L 658.88498,-167.31355 L 674.75001,-164.77562 L 683.63444,-168.5825 L 691.88426,-186.98242 L 702.03789,-195.86514 L 712.82613,-195.86514 L 721.71054,-200.30649 L 736.30639,-201.57547 L 744.55621,-204.74786 L 749.63302,-214.26505 L 747.72921,-219.97538 L 754.70984,-223.14778 L 757.88284,-232.66497 L 764.22885,-233.29945 L 771.20948,-235.83737 L 769.30567,-241.54769 L 771.84408,-245.35457 L 780.0939,-241.54769 L 785.17072,-249.16144 L 787.07453,-249.16144 L 791.51673,-240.27874 L 797.86274,-241.54769 L 804.20877,-240.9132 L 811.18938,-237.10634 L 816.9008,-237.10634 L 818.80461,-247.89249 L 825.78523,-248.52697 L 831.49663,-178.73418 L 818.80461,-174.29283 L 813.09319,-168.5825 L 811.82399,-162.23771 L 798.49735,-146.37571 L 797.86274,-138.76196 L 801.67036,-115.92067 L 803.57417,-100.69316 L 809.92018,-75.948448 L 809.92018,-70.23814 L 795.95894,-62.624373 L 790.24753,-54.376137 L 771.84408,-53.107181 L 780.0939,-8.0591005 L 780.0939,11.609769 L 789.61292,29.375197 L 773.11328,71.250881 L 820.70841,148.02293 L 833.40044,203.85716 L 832.76585,232.40875 L 823.24681,262.2293 L 814.99699,262.2293 L 803.57417,269.84307 L 798.49735,281.89819 L 790.88212,293.95329 L 781.3631,297.76017 L 778.1901,306.00841 L 775.01709,316.79457 L 768.03647,328.84969 L 761.05585,340.27033 L 759.78665,350.422 L 756.61364,359.30473 L 754.70984,371.35985 L 753.44064,383.41495 L 745.19082,394.20111 L 738.84479,399.27695 L 727.42196,399.91144 L 712.82613,399.27695 L 698.86488,407.52519 L 693.15346,419.58031 L 689.98046,430.36647 L 679.19224,444.9595 L 677.92302,457.64909 L 679.19224,471.60765 L 682.99983,473.51109 L 679.82683,477.31798 L 681.73064,487.46966 L 681.09604,499.52477 L 680.46144,509.67645 L 682.36524,512.84885 L 684.26905,517.92469 L 688.07665,519.19364 L 693.15346,523.00053 L 693.15346,528.71084 L 675.38462,547.74524 L 665.23099,581.37267 L 652.53895,601.04154 L 641.11613,647.99304 L 550.36809,644.18618 L 535.77225,646.72409 L 519.9072,645.45513 L 507.84977,651.16546 L 500.86915,647.35857 L 488.81173,656.87576 L 473.58129,662.58609 L 469.77367,674.64121 L 453.90862,667.02744 L 440.58199,670.83433 L 431.69756,677.17912 L 413.29411,670.19984 L 384.73704,651.79993 L 379.02563,642.9172 L 382.83323,631.49657 L 375.85263,626.42073 L 373.31421,613.73114 L 377.12183,601.67602 L 366.33359,590.25539 L 347.29553,578.83474 L 340.94952,577.56578 L 335.23812,562.97275 L 318.10387,566.14515 L 302.87343,580.73818 L 307.95024,587.08299 L 304.14263,590.88986 L 300.33501,585.17955 L 293.35439,592.7933 L 290.81599,587.08299 L 281.93156,590.25539 L 280.66236,595.33123 L 275.58555,599.77258 L 253.37449,597.23467 L 244.49006,583.27611 L 235.60565,586.44851 L 232.43264,584.54506 L 215.93298,591.52434 C 215.93298,591.52434 207.04857,605.48291 200.06795,609.28977 C 193.08733,613.09666 165.79945,615.63458 156.91503,615.63458 C 148.03062,615.63458 102.97389,590.88986 102.97389,590.88986 L 114.39672,573.12443 L 114.39672,565.51066 L 124.55035,547.74524 L 132.80017,545.20731 L 134.06937,535.69012 C 134.06937,535.69012 110.58911,455.74565 109.31991,448.76639 C 108.0507,441.7871 104.87769,419.58031 105.5123,412.60103 C 106.1469,405.62175 110.58911,391.6632 115.03132,385.31839 C 119.47353,378.9736 137.87698,358.03575 142.9538,352.95992 L 149.70882,345.29108 z" />
</svg>
